<?xml version="1.0" encoding="utf-8"?>
<!-- Generator: Adobe Illustrator 18.1.1, SVG Export Plug-In . SVG Version: 6.00 Build 0)  -->
<svg version="1.1" xmlns="http://www.w3.org/2000/svg" xmlns:xlink="http://www.w3.org/1999/xlink" x="0px" y="0px"
	 viewBox="0 0 1820 2000" enable-background="new 0 0 1820 2000" xml:space="preserve">
<g id="Layer_2">
</g>
<g id="Layer_3" display="none">
	<path display="inline" fill="#1AC3ED" d="M-388.3-1397.4c0,0-0.5-1.9-1.4-5.5c-0.5-1.8-1-4.1-1.7-6.8c-0.3-1.3-0.7-2.8-1.1-4.4
		c-0.4-1.5-0.8-3.3-1.3-4.9c-1-3.3-2-7-3.2-11c-0.6-2-1.2-4.1-1.9-6.4c-0.7-2.2-1.5-4.5-2.3-6.9c-1.6-4.8-3.2-10-5.2-15.4
		c-2-5.4-4-11.3-6.5-17.2c-1.2-3-2.4-6.1-3.7-9.2c-1.4-3.1-2.8-6.3-4.2-9.5c-0.7-1.6-1.5-3.3-2.2-4.9c-0.7-1.7-1.6-3.3-2.4-5
		c-1.6-3.3-3.3-6.7-5-10.2c-7.2-13.6-15.7-27.9-26.1-42.1c-10.4-14.2-22.6-28.2-37.1-41c-14.5-12.9-31.5-24.2-50.6-33.2
		c-1.2-0.6-2.4-1.1-3.6-1.6c-1.2-0.5-2.5-1-3.7-1.6c-1.2-0.5-2.5-1-3.7-1.6c-1.3-0.5-2.5-0.9-3.8-1.4c-2.5-0.9-5.1-1.9-7.7-2.7
		c-2.6-0.8-5.3-1.6-7.9-2.4c-2.6-0.9-5.4-1.4-8.1-2.1c-2.7-0.7-5.4-1.4-8.2-1.9c-2.8-0.5-5.6-1.1-8.4-1.6c-2.8-0.4-5.7-0.8-8.6-1.2
		c-23-2.9-47.5-2.5-72.5,0.9c-3.1,0.3-6.3,0.9-9.4,1.4c-3.1,0.5-6.3,1-9.5,1.7c-3.2,0.6-6.3,1.3-9.5,1.9c-3.2,0.8-6.3,1.5-9.5,2.3
		c-12.7,3.2-25.5,6.8-38.3,11.3c-1.6,0.5-3.2,1.1-4.8,1.6c-1.6,0.6-3.2,1.2-4.8,1.8c-3.2,1.2-6.4,2.4-9.6,3.6
		c-6.4,2.6-12.8,5.1-19.1,7.9c-6.4,2.7-12.7,5.7-19.1,8.7c-3.2,1.5-6.3,3.1-9.5,4.7c-1.6,0.8-3.2,1.6-4.8,2.4
		c-1.6,0.8-3.1,1.6-4.7,2.5c-3.1,1.7-6.3,3.3-9.5,5c-3.1,1.7-6.3,3.5-9.4,5.2l-4.7,2.6l-4.7,2.7c-3.1,1.8-6.2,3.6-9.4,5.5
		c-6.2,3.8-12.4,7.5-18.5,11.5c-3.1,2-6.2,3.9-9.2,6c-3,2-6.1,4.1-9.2,6.1c-3.1,2-6.1,4.2-9.1,6.3c-3,2.1-6.1,4.2-9.1,6.4
		c-6,4.4-12,8.7-18,13.2c-12,8.9-23.7,18.3-35.3,27.9c-23.2,19.3-45.8,39.7-67.5,61.2c-10.9,10.7-21.5,21.8-32.1,32.9l-7.8,8.5
		l-3.9,4.2l-3.8,4.3l-7.7,8.6l-7.5,8.7l-3.8,4.4l-3.7,4.4l-7.4,8.8l-7.3,9c-2.4,3-4.8,6-7.2,9l-7.1,9.1l-7,9.2
		c-4.7,6.1-9.2,12.3-13.7,18.5c-8.9,12.5-17.7,25-26.1,37.7c-4.3,6.3-8.3,12.8-12.4,19.2c-2,3.2-4,6.5-6,9.7c-2,3.2-4,6.5-5.9,9.7
		c-1.9,3.3-3.8,6.5-5.8,9.8c-1.9,3.3-3.7,6.6-5.6,9.8c-3.8,6.5-7.3,13.2-10.8,19.8c-7,13.3-13.7,26.6-19.9,40.1l-2.4,5
		c-0.8,1.7-1.5,3.4-2.3,5.1c-1.5,3.4-3,6.8-4.5,10.1c-1.4,3.4-2.8,6.8-4.2,10.2l-2.1,5.1l-2,5.1c-1.3,3.4-2.7,6.8-4,10.2
		c-1.2,3.4-2.5,6.8-3.7,10.2c-1.3,3.4-2.4,6.8-3.6,10.3c-1.1,3.4-2.4,6.8-3.4,10.3c-1.1,3.4-2.1,6.9-3.2,10.3
		c-0.5,1.7-1,3.4-1.5,5.1c-0.5,1.7-1,3.4-1.5,5.2c-2,6.8-3.7,13.7-5.4,20.6c-0.8,3.4-1.6,6.9-2.3,10.3c-0.4,1.7-0.8,3.4-1.1,5.1
		c-0.3,1.7-0.7,3.4-1,5.2c-0.6,3.4-1.4,6.8-1.9,10.3c-0.6,3.4-1.1,6.8-1.7,10.3c-4.1,27.3-5.8,54.4-4.2,80.7
		c0.8,13.1,2.2,26,4.6,38.5c0.3,1.6,0.6,3.1,0.8,4.7c0.4,1.5,0.7,3.1,1.1,4.6c0.3,1.5,0.7,3.1,1,4.6c0.4,1.5,0.7,3.1,1.1,4.6
		c0.8,3,1.7,6,2.5,9c0.2,0.7,0.4,1.5,0.6,2.2l0.7,2.2c0.5,1.5,1,2.9,1.5,4.4c0.5,1.5,1,2.9,1.4,4.4c0.5,1.5,1.1,2.9,1.6,4.3
		c1.1,2.9,2.2,5.7,3.3,8.5c1.2,2.8,2.5,5.5,3.7,8.3c0.6,1.4,1.2,2.8,1.9,4.1c0.7,1.3,1.4,2.7,2,4c0.7,1.3,1.4,2.7,2,4
		c0.7,1.3,1.3,2.7,2.1,3.9c1.5,2.6,2.9,5.1,4.4,7.6l1.1,1.9c0.4,0.6,0.8,1.2,1.2,1.8c0.8,1.2,1.6,2.4,2.4,3.7
		c0.8,1.2,1.6,2.4,2.4,3.6l1.2,1.8l1.3,1.7c13.3,18.7,28.4,35,44.5,48.5c16.1,13.6,32.8,24.7,49.2,33.9c4.1,2.2,8.2,4.4,12.2,6.6
		c4.1,2,8.1,3.9,12.1,5.9c1,0.5,2,1,3,1.4c1,0.4,2,0.9,3,1.3c2,0.9,4,1.7,5.9,2.5c1.9,0.8,3.9,1.7,5.8,2.5c1.9,0.8,3.9,1.5,5.8,2.3
		c3.8,1.5,7.5,2.9,11.2,4.3c3.7,1.3,7.3,2.5,10.9,3.7c1.8,0.6,3.5,1.2,5.3,1.8c1.7,0.6,3.5,1.1,5.2,1.6c3.4,1,6.8,2,10,3
		c26.1,7.6,47.1,11.6,61.4,14.4c14.4,2.4,22,3.7,22,3.7s-7.7-1.1-22.1-3.1c-14.4-2.4-35.5-5.9-61.9-12.9c-3.3-0.9-6.7-1.8-10.1-2.8
		c-1.7-0.5-3.5-0.9-5.2-1.5c-1.8-0.6-3.5-1.1-5.3-1.7c-3.6-1.1-7.3-2.3-11-3.5c-3.7-1.3-7.5-2.7-11.4-4.1c-1.9-0.7-3.9-1.4-5.9-2.1
		c-1.9-0.8-3.9-1.6-5.9-2.4c-2-0.8-4-1.6-6-2.4c-1-0.4-2-0.8-3-1.2c-1-0.5-2-0.9-3-1.4c-4-1.8-8.2-3.7-12.4-5.6
		c-4.1-2.1-8.3-4.2-12.6-6.3c-16.8-8.9-34.1-19.8-50.9-33.2c-16.8-13.4-32.8-29.7-46.9-48.7l-1.4-1.8l-1.3-1.8
		c-0.8-1.2-1.7-2.5-2.5-3.7c-0.8-1.2-1.7-2.5-2.5-3.7c-0.4-0.6-0.9-1.2-1.3-1.9l-1.2-1.9c-1.6-2.6-3.2-5.2-4.8-7.8
		c-0.8-1.3-1.5-2.6-2.3-4c-0.7-1.4-1.5-2.7-2.2-4.1c-0.7-1.4-1.5-2.7-2.2-4.1c-0.8-1.4-1.4-2.8-2.1-4.2c-1.3-2.8-2.7-5.6-4-8.5
		c-1.2-2.9-2.4-5.8-3.6-8.7c-0.6-1.5-1.3-2.9-1.8-4.4c-0.5-1.5-1.1-3-1.6-4.5c-0.5-1.5-1.1-3-1.6-4.5l-0.8-2.3
		c-0.3-0.8-0.5-1.5-0.7-2.3c-0.9-3.1-1.9-6.2-2.8-9.3c-0.5-1.5-0.9-3.1-1.3-4.7c-0.4-1.6-0.8-3.2-1.2-4.8c-0.4-1.6-0.8-3.2-1.2-4.8
		c-0.3-1.6-0.7-3.2-1-4.8c-2.9-12.9-4.6-26.2-5.8-39.8c-2.3-27.1-1.3-55.1,2.3-83.4c0.5-3.5,1-7.1,1.5-10.6
		c0.5-3.5,1.2-7.1,1.7-10.6c0.3-1.8,0.6-3.5,0.9-5.3c0.3-1.8,0.7-3.5,1-5.3c0.7-3.5,1.4-7.1,2.1-10.6c1.6-7.1,3.1-14.2,5-21.3
		c0.5-1.8,0.9-3.5,1.4-5.3c0.4-1.8,0.9-3.6,1.4-5.3c1-3.5,2-7.1,3-10.6c1-3.6,2.2-7.1,3.2-10.6c1.1-3.5,2.2-7.1,3.4-10.6
		c1.2-3.5,2.4-7.1,3.6-10.6c1.3-3.5,2.5-7,3.8-10.5l1.9-5.3l2-5.3c1.4-3.5,2.7-7,4.1-10.5c1.4-3.5,2.9-7,4.3-10.5
		c0.7-1.7,1.4-3.5,2.2-5.2l2.3-5.2c6-13.9,12.6-27.7,19.3-41.5c3.5-6.8,6.9-13.7,10.6-20.5c1.8-3.4,3.6-6.8,5.5-10.2
		c1.9-3.4,3.7-6.7,5.6-10.1c1.9-3.4,3.8-6.7,5.8-10.1c2-3.3,3.9-6.7,5.9-10c4-6.6,8-13.3,12.1-19.9c8.2-13.2,16.8-26.2,25.6-39.2
		c4.5-6.4,8.9-12.9,13.5-19.2l6.9-9.5l7-9.4c2.3-3.2,4.7-6.3,7.1-9.4l7.2-9.3l7.3-9.2l3.7-4.6l3.7-4.6l7.5-9.1l7.6-9l3.8-4.5
		l3.9-4.4l7.8-8.9c10.5-11.7,21.1-23.3,32-34.6c21.7-22.6,44.4-44.1,67.8-64.6c11.7-10.2,23.6-20.2,35.7-29.7
		c6-4.8,12.1-9.5,18.2-14.1c3-2.3,6.2-4.6,9.2-6.8c3.1-2.3,6.1-4.6,9.3-6.7c3.1-2.2,6.2-4.4,9.3-6.6c3.1-2.2,6.3-4.3,9.4-6.4
		c6.3-4.3,12.7-8.4,19-12.5c3.2-2,6.4-4,9.6-6l4.8-3l4.9-2.9c3.2-1.9,6.5-3.8,9.7-5.7c3.3-1.8,6.5-3.7,9.8-5.5
		c1.6-0.9,3.2-1.8,4.9-2.7c1.6-0.9,3.3-1.7,4.9-2.6c3.3-1.7,6.6-3.5,9.9-5.2c6.7-3.3,13.2-6.7,20-9.7c6.6-3.2,13.4-6,20.1-9
		c3.4-1.4,6.8-2.7,10.2-4.1c1.7-0.7,3.4-1.4,5.1-2c1.7-0.6,3.4-1.3,5.1-1.9c13.6-5.2,27.4-9.5,41.2-13.3c3.5-0.9,6.9-1.8,10.4-2.7
		c3.5-0.8,7-1.6,10.4-2.4c3.4-0.8,7-1.4,10.4-2.1c3.5-0.6,6.9-1.4,10.4-1.9c27.8-4.5,55.7-5.7,82.7-3c3.4,0.4,6.7,0.8,10.1,1.1
		c3.3,0.5,6.6,1.1,9.9,1.6c3.3,0.5,6.6,1.3,9.8,1.9c3.2,0.7,6.5,1.3,9.7,2.3c3.2,0.9,6.4,1.7,9.5,2.6c3.1,1,6.2,2,9.3,3
		c1.5,0.5,3.1,1,4.6,1.6c1.5,0.6,3,1.2,4.5,1.8c1.5,0.6,3,1.2,4.5,1.8c1.5,0.6,3,1.1,4.4,1.8c23.4,10.2,44.3,23.4,61.9,38.4
		c17.7,14.9,32.5,31,44.9,47.1c12.4,16.1,22.4,32.1,30.9,47.3c2,3.8,4,7.6,5.9,11.3c0.9,1.8,2,3.6,2.8,5.5c0.9,1.8,1.7,3.6,2.6,5.4
		c1.7,3.6,3.4,7.1,5,10.5c1.5,3.4,2.9,6.8,4.4,10.1c2.9,6.5,5.3,12.8,7.6,18.7c2.4,5.9,4.3,11.5,6.1,16.7c0.9,2.6,1.8,5.1,2.6,7.5
		c0.8,2.4,1.5,4.8,2.3,7.1c1.4,4.5,2.7,8.6,3.9,12.3c0.6,1.9,1,3.5,1.5,5c0.4,1.5,0.8,3,1.2,4.3c0.8,2.7,1.4,4.9,1.9,6.7
		c1,3.6,1.6,5.5,1.6,5.5L-388.3-1397.4z"/>
</g>
<g id="Layer_1">
	<g>
		<path fill="#1AC3ED" stroke="#1AC3ED" stroke-miterlimit="10" d="M672.1,575.8c12.3-11.1,24.8-21.9,37.4-32.4
			c13.6-11.2,27.3-22.1,41.2-32.6c6.9-5.3,14-10.3,21-15.4c3.5-2.6,7.1-5,10.6-7.4c3.5-2.5,7-5,10.6-7.3c3.6-2.4,7.1-4.8,10.7-7.2
			c3.6-2.4,7.2-4.6,10.8-6.9c7.1-4.7,14.4-9,21.6-13.4c3.6-2.1,7.3-4.3,10.9-6.4l5.4-3.2l5.5-3.1c3.7-2,7.3-4.1,11-6.1
			c3.7-1.9,7.4-3.9,11-5.8c1.8-1,3.7-2,5.5-2.9c1.9-0.9,3.7-1.8,5.5-2.8c3.7-1.8,7.4-3.7,11.1-5.4c7.4-3.5,14.8-7,22.3-10.1
			c7.4-3.3,14.9-6.2,22.3-9.3c3.7-1.4,7.5-2.8,11.2-4.2c1.9-0.7,3.7-1.4,5.6-2.1c1.9-0.6,3.7-1.3,5.6-1.9
			c14.9-5.2,29.8-9.5,44.7-13.2c3.7-0.9,7.4-1.8,11.1-2.6c3.7-0.7,7.4-1.5,11.1-2.2c3.7-0.8,7.4-1.3,11-1.9c3.7-0.6,7.3-1.3,11-1.7
			c29.2-4,57.8-4.4,84.6-1c3.3,0.5,6.7,0.9,10,1.4c3.3,0.6,6.5,1.2,9.8,1.9c3.3,0.5,6.4,1.4,9.6,2.2c3.2,0.8,6.4,1.4,9.4,2.5
			c3.1,0.9,6.2,1.8,9.2,2.8c3,1,6,2.1,9,3.2c1.5,0.5,3,1,4.4,1.6c1.4,0.6,2.9,1.2,4.3,1.8c1.4,0.6,2.9,1.2,4.3,1.8
			c1.4,0.6,2.9,1.1,4.2,1.9c22.3,10.5,42.2,23.6,59.1,38.7c17,15,31.3,31.3,43.3,47.9c12.1,16.6,22,33.3,30.4,49.2c2,4,4,8,5.9,11.9
			c0.9,2,2,3.8,2.8,5.8c0.9,1.9,1.7,3.9,2.6,5.8c1.7,3.8,3.3,7.5,5,11.1c1.5,3.7,2.9,7.3,4.3,10.8c2.9,6.9,5.3,13.8,7.6,20.1
			c2.4,6.3,4.3,12.4,6.1,18c0.9,2.8,1.8,5.5,2.6,8.1c0.8,2.6,1.5,5.1,2.2,7.4c1.4,4.7,2.6,9,3.7,12.9c0.6,1.9,1,3.9,1.5,5.7
			c0.5,1.8,0.9,3.5,1.3,5.1c0.8,3.1,1.5,5.8,2,7.9c0.1,0.3,0.1,0.5,0.2,0.8l9.7,3.4l48.1-13c0,0-0.6-2.2-1.8-6.4
			c-0.6-2.1-1.3-4.7-2.2-7.9c-0.4-1.6-0.9-3.2-1.4-5c-0.5-1.8-1-3.7-1.7-5.9c-1.4-4.3-2.9-9.1-4.5-14.3c-0.8-2.6-1.7-5.4-2.6-8.2
			c-1-2.8-2-5.7-3.1-8.7c-2.1-6.1-4.3-12.6-7.1-19.4c-2.7-6.9-5.4-14.2-8.9-21.8c-1.7-3.8-3.4-7.7-5.1-11.8c-1.9-4-3.8-8-5.8-12.2
			c-1-2.1-2-4.2-3-6.3c-1-2.1-2.2-4.2-3.3-6.4c-2.3-4.3-4.6-8.7-6.9-13.1c-9.9-17.7-21.6-36.4-36.1-55.2
			c-14.4-18.8-31.7-37.6-52.4-55c-20.6-17.4-45-32.8-72.3-44.8c-1.7-0.8-3.4-1.4-5.2-2.1c-1.7-0.7-3.5-1.4-5.2-2.1
			c-1.7-0.7-3.5-1.4-5.3-2.1c-1.8-0.6-3.6-1.2-5.4-1.8c-3.6-1.2-7.2-2.4-10.8-3.5c-3.7-1-7.4-2-11.1-3c-3.7-1.1-7.5-1.8-11.3-2.6
			c-3.8-0.8-7.6-1.7-11.4-2.3c-3.8-0.6-7.7-1.3-11.6-1.9c-3.9-0.4-7.8-0.9-11.7-1.3c-31.5-3.2-64.1-1.8-96.5,3.5
			c-4.1,0.6-8.1,1.4-12.2,2.2c-4,0.8-8.1,1.5-12.2,2.5c-4,0.9-8.1,1.8-12.1,2.8c-4,1.1-8,2.1-12.1,3.2c-16.1,4.4-32.2,9.5-48,15.5
			c-2,0.7-4,1.5-6,2.2c-2,0.8-3.9,1.6-5.9,2.4c-3.9,1.6-7.9,3.2-11.9,4.8c-7.8,3.4-15.7,6.7-23.5,10.5c-7.8,3.6-15.5,7.5-23.3,11.3
			c-3.9,1.9-7.7,4-11.5,6c-1.9,1-3.8,2-5.8,3c-1.9,1-3.8,2.1-5.7,3.2c-3.8,2.1-7.6,4.3-11.4,6.4c-3.8,2.2-7.5,4.4-11.3,6.7l-5.7,3.3
			l-5.6,3.5c-3.7,2.3-7.5,4.6-11.2,7c-7.4,4.8-14.9,9.5-22.2,14.6c-3.7,2.5-7.4,4.9-11,7.5c-3.6,2.6-7.3,5.1-10.9,7.7
			c-3.7,2.5-7.2,5.2-10.8,7.9c-3.6,2.7-7.2,5.3-10.8,8c-7.1,5.4-14.3,10.8-21.3,16.5c-14.1,11.1-27.9,22.8-41.6,34.6
			c-27.3,23.9-53.7,49-79.1,75.4c-3,3-5.9,6.1-8.8,9.2L672.1,575.8z"/>
		<path fill="#1AC3ED" stroke="#1AC3ED" stroke-miterlimit="10" d="M585.7,1545.9c-3.8-1.1-7.7-2.3-11.7-3.5c-2-0.6-4-1.2-6-1.9
			c-2-0.7-4.1-1.4-6.1-2.1c-4.1-1.4-8.4-2.9-12.7-4.4c-4.3-1.6-8.6-3.3-13.1-5c-2.2-0.9-4.5-1.7-6.7-2.6c-2.2-1-4.5-1.9-6.8-2.9
			c-2.3-1-4.6-2-6.9-3c-1.2-0.5-2.3-1-3.5-1.5c-1.1-0.6-2.3-1.1-3.5-1.7c-4.6-2.2-9.4-4.5-14.1-6.8c-4.7-2.5-9.4-5.1-14.3-7.7
			c-19.1-10.8-38.7-23.7-57.4-39.5c-18.7-15.8-36.5-34.8-51.9-56.6l-1.5-2l-1.4-2.1c-0.9-1.4-1.8-2.8-2.8-4.2
			c-0.9-1.4-1.8-2.8-2.8-4.3c-0.5-0.7-0.9-1.4-1.4-2.1l-1.3-2.2c-1.7-3-3.4-5.9-5.1-8.9c-0.9-1.5-1.7-3-2.4-4.6
			c-0.8-1.5-1.6-3.1-2.4-4.6c-0.8-1.5-1.6-3.1-2.4-4.7c-0.8-1.5-1.5-3.2-2.2-4.8c-1.4-3.2-2.9-6.4-4.3-9.7c-1.3-3.3-2.6-6.6-3.8-9.9
			c-0.6-1.7-1.3-3.3-1.9-5c-0.6-1.7-1.1-3.4-1.7-5.1c-0.6-1.7-1.1-3.4-1.7-5.1l-0.9-2.6c-0.3-0.9-0.5-1.7-0.7-2.6
			c-1-3.5-1.9-7-2.9-10.5c-0.5-1.8-0.9-3.6-1.3-5.3c-0.4-1.8-0.8-3.6-1.2-5.4c-0.4-1.8-0.8-3.6-1.2-5.4c-0.3-1.8-0.7-3.7-1-5.5
			c-2.9-14.6-4.4-29.7-5.4-44.9c-1.8-30.6,0.1-62.2,4.9-94.1c0.6-4,1.3-8,2-12c0.7-4,1.5-8,2.3-12c0.4-2,0.8-4,1.2-6
			c0.4-2,0.9-4,1.3-6c0.9-4,1.8-8,2.7-12c2.1-8,4-16,6.3-24c0.6-2,1.1-4,1.7-6c0.6-2,1.1-4,1.8-6c1.2-4,2.5-8,3.7-12
			c1.2-4,2.7-8,4-12c1.3-4,2.7-8,4.2-12c1.5-4,2.9-8,4.4-12c1.5-4,3.1-7.9,4.6-11.9l2.3-6l2.5-5.9c1.7-4,3.3-7.9,5-11.9
			c1.7-3.9,3.5-7.9,5.2-11.8c0.9-2,1.7-4,2.6-5.9l2.7-5.9c6-13,12.4-25.9,19.1-38.7c-2.7-11.3-5.3-22.7-7.6-34.1
			c-2.7,5.3-5.4,10.6-8.1,15.8c-7.9,16-15.6,32.1-22.5,48.4l-2.7,6.1c-0.9,2-1.7,4.1-2.5,6.1c-1.7,4.1-3.4,8.2-5,12.2
			c-1.6,4.1-3.2,8.2-4.8,12.3l-2.4,6.1l-2.2,6.2c-1.5,4.1-3,8.2-4.4,12.3c-1.4,4.1-2.8,8.2-4.2,12.4c-1.4,4.1-2.7,8.2-4,12.4
			c-1.3,4.1-2.6,8.2-3.8,12.4c-1.2,4.1-2.3,8.3-3.5,12.4c-0.6,2.1-1.2,4.1-1.7,6.2c-0.5,2.1-1.1,4.1-1.6,6.2
			c-2.2,8.2-4,16.6-5.9,24.8c-0.9,4.1-1.7,8.3-2.5,12.4c-0.4,2.1-0.8,4.1-1.2,6.2c-0.3,2.1-0.7,4.1-1,6.2c-0.7,4.1-1.4,8.3-2,12.4
			c-0.6,4.1-1.1,8.3-1.7,12.4c-4.1,32.9-5.3,65.6-2.6,97.3c1.4,15.8,3.4,31.3,6.7,46.4c0.4,1.9,0.8,3.8,1.2,5.7
			c0.5,1.9,0.9,3.7,1.4,5.6c0.5,1.9,0.9,3.7,1.4,5.6c0.5,1.8,0.9,3.7,1.5,5.5c1.1,3.6,2.2,7.3,3.3,10.9c0.3,0.9,0.5,1.8,0.8,2.7
			l0.9,2.7c0.6,1.8,1.3,3.5,1.9,5.3c0.6,1.8,1.3,3.5,1.9,5.3c0.6,1.8,1.4,3.4,2.1,5.2c1.4,3.4,2.8,6.8,4.2,10.2
			c1.6,3.3,3.1,6.6,4.7,9.9c0.8,1.6,1.5,3.3,2.4,4.9c0.9,1.6,1.7,3.2,2.6,4.8c0.9,1.6,1.7,3.2,2.6,4.7c0.9,1.6,1.7,3.2,2.6,4.7
			c1.9,3,3.7,6.1,5.5,9.1l1.4,2.3c0.5,0.7,1,1.5,1.5,2.2c1,1.4,2,2.9,3,4.3c1,1.4,2,2.9,3,4.3l1.5,2.1l1.6,2.1
			c16.5,22.1,35.2,41.1,54.8,56.8c19.6,15.7,39.8,28.3,59.4,38.7c5,2.5,9.8,5,14.7,7.4c4.9,2.3,9.7,4.4,14.4,6.5
			c1.2,0.5,2.4,1.1,3.5,1.6c1.2,0.5,2.4,1,3.6,1.4c2.4,1,4.7,1.9,7,2.8c2.3,0.9,4.6,1.9,6.9,2.8c2.3,0.9,4.6,1.7,6.8,2.5
			c4.5,1.6,8.9,3.2,13.3,4.7c4.4,1.4,8.7,2.7,12.9,4.1c2.1,0.7,4.2,1.3,6.2,2c2,0.7,4.1,1.2,6.1,1.7c4,1.1,8,2.2,11.8,3.3
			c30.8,8.1,55.4,12.2,72.2,15.1c16.8,2.4,25.8,3.7,25.8,3.7s-8.9-1.5-25.7-4.3C640.7,1559.5,616.1,1554.8,585.7,1545.9z"/>
	</g>
	<g>
		<path display="none" fill="#1AC3ED" d="M1345.2-193.2L526.4-477.8l-16-5.6l-16,5.6l-818.8,284.6l-32.7,11.4v34.6v34.6
			c0,211.7,43,421.9,127.9,624.9c67.3,161,160.9,317.7,278.3,465.6c199.1,251.1,397.4,390.2,405.8,396l27.8,19.3l27.8,19.3
			l27.8-19.3l27.8-19.3c8.3-5.8,206.6-145,405.8-396c117.3-147.9,211-304.6,278.3-465.6c84.8-203,127.9-413.2,127.9-624.9v-34.6
			v-34.6L1345.2-193.2z M1329.2-112.6c0,205.2-41.8,409.1-124.1,606.1c-65.6,156.9-156.9,309.7-271.5,454.2
			c-194.8,245.5-387.3,380.7-395.4,386.3l-27.8,19.3l-27.8-19.3c-8.1-5.6-200.7-140.8-395.4-386.3
			C-27.4,803.2-118.7,650.4-184.3,493.5c-82.3-197-124.1-400.9-124.1-606.1v-34.6l818.8-284.6l818.8,284.6V-112.6z"/>
		<path display="none" fill="#1AC3ED" d="M199.8,854.6C84,708.2-48.9,496.6-117,236.2h-50.3c68.9,273,207.2,494.8,328.9,648.6
			c80.3,101.5,161.1,183.9,227.1,245v-67C331.3,1007.3,265.3,937.4,199.8,854.6z"/>
		<path display="none" fill="#1AC3ED" d="M510.4-328.8l-721,250.6c0.6,23.9,1.8,47.6,3.6,71h48.8c-1-12.2-1.8-24.5-2.4-36.8
			l671.1-233.3L1181.5-44c-0.6,12.4-1.4,24.6-2.4,36.8h48.8c1.8-23.4,3-47,3.6-71L510.4-328.8z"/>
		<path display="none" fill="#1AC3ED" d="M821,854.6c-65.5,82.9-131.5,152.7-189,208.2v67c66.1-61,146.9-143.5,227.1-245
			c121.7-153.8,260-375.6,328.9-648.6h-50.3C1069.7,496.6,936.8,708.2,821,854.6z"/>
		<path display="none" fill="#1AC3ED" d="M-253.4-7.2c7.9,84.7,22.8,165.9,43.3,243.3h42.9C-186.8,159-200.7,77.8-207.1-7.2H-253.4z
			"/>
		<path display="none" fill="#1AC3ED" d="M388.7,1129.7v35.2c72.9,64.6,121.7,98.4,121.7,98.4s48.7-33.9,121.7-98.4v-35.2
			c-52.3,48.3-95.4,83.2-121.7,103.5C484.1,1213,441.1,1178.1,388.7,1129.7z"/>
		<g>
			<path display="none" fill="#1AC3ED" d="M1231,236.2c20.4-77.4,35.4-158.6,43.3-243.3h-46.4c-6.4,85-20.3,166.2-39.8,243.3H1231z"
				/>
		</g>
		<g>
			<path fill="#1AC3ED" d="M835,932v594.5c34.8,33.6,65.3,59.8,87.5,77.9c22.2-18.1,52.7-44.3,87.5-77.9V932h363.8
				c14.5-55.4,24.9-113.8,29.7-175H441.6c4.8,61.2,15.2,119.6,29.7,175H835z"/>
		</g>
	</g>
	<g>
		<path fill="#1AC3ED" d="M922.5,1735.5l-20-13.9c-5.8-4.1-144.3-101.2-284.4-277.9C535.7,1339.9,470,1230,422.9,1117.1
			c-59.2-141.7-89.3-288.4-89.3-435.9v-24.9l588.9-204.7l588.9,204.7v24.9c0,147.6-30,294.3-89.3,435.9
			c-47.2,112.9-112.9,222.8-195.3,326.7c-140.1,176.6-278.6,273.8-284.4,277.9L922.5,1735.5z M403.9,705.9
			c7.4,301.2,148.7,542.1,267.7,692.6c103.5,130.8,208.2,217.6,250.9,250.7c42.7-33,147.4-119.8,250.9-250.7
			c119-150.5,260.3-391.4,267.7-692.6L922.5,525.7L403.9,705.9z"/>
	</g>
	<g display="none">
		<path display="inline" fill="#1AC3ED" d="M486.3,940.3v228.9h-25.2V940.3h-75.3v-23.1h175.7v23.1H486.3z"/>
		<path display="inline" fill="#1AC3ED" d="M645.2,1169.2c-31.9,0-49-17.2-49-49v-154c0-31.9,17.2-49,49-49H718
			c31.9,0,49,17.2,49,49v26.6h-25.2v-27.3c0-16.5-8.8-25.2-25.2-25.2h-70c-16.5,0-25.2,8.8-25.2,25.2v155.4
			c0,16.5,8.8,25.2,25.2,25.2h70c16.5,0,25.2-8.8,25.2-25.2v-27.3H767v26.6c0,31.9-17.2,49-49,49H645.2z"/>
		<path display="inline" fill="#1AC3ED" d="M943.4,917.2c31.9,0,49,17.2,49,49v55.3c0,31.9-17.2,49-49,49h-94.5v98.7h-25.2v-252
			H943.4z M942,1047.4c16.5,0,25.2-8.8,25.2-25.2v-56.7c0-16.5-8.8-25.2-25.2-25.2h-93.1v107.1H942z"/>
		<path display="inline" fill="#1AC3ED" d="M1156.6,969.7c0-4.6-2.5-7-7-7h-60.2c-4.6,0-7,2.4-7,7v30.1c0,7.7,2.8,9.8,11.9,11.9
			l65.1,14c30.8,6.6,50.4,18.9,50.4,50.4v44.1c0,31.9-17.2,49-49,49h-80.5c-31.9,0-49-17.2-49-49v-31.5h49v28c0,4.6,2.5,7,7,7h65.1
			c4.5,0,7-2.4,7-7v-32.9c0-7.7-2.8-9.8-11.9-11.9l-65.1-14c-30.8-6.7-50.4-18.9-50.4-50.4v-41.3c0-31.9,17.2-49,49-49h75.6
			c31.9,0,49,17.2,49,49v28.7h-49V969.7z"/>
		<path display="inline" fill="#1AC3ED" d="M1257.7,917.2h50.4v100.1h86.8V917.2h50.4v252h-50.4v-105.7h-86.8v105.7h-50.4V917.2z"/>
		<path display="inline" fill="#1AC3ED" d="M1500.6,917.2h50.4v252h-50.4V917.2z"/>
		<path display="inline" fill="#1AC3ED" d="M1771.2,917.2v46.2h-114.5v54.3h92.8v45.5h-92.8v59.9h114.5v46.2h-164.9v-252H1771.2z"/>
		<path display="inline" fill="#1AC3ED" d="M1866,917.2V1123h105.7v46.2h-156.1v-252H1866z"/>
		<path display="inline" fill="#1AC3ED" d="M2141.8,917.2c31.9,0,49,17.2,49,49v154c0,31.9-17.2,49-49,49h-132v-252H2141.8z
			 M2133.4,1123c4.5,0,7-2.5,7-7V970.4c0-4.5-2.5-7-7-7h-73.2V1123H2133.4z"/>
	</g>
</g>
<g id="Layer_5" display="none">
	<path display="inline" fill="#FFFFFF" d="M-796.3-1546.6l-470.9,167c0,517.1,470.9,865.1,470.9,865.1s470.9-314,470.9-865.1
		L-796.3-1546.6z"/>
	<g display="inline">
		<path display="none" fill="#1AC3ED" d="M-281.7-1429.8l-504.7-175.4l-9.8-3.4l-9.8,3.4l-504.7,175.4l-20.2,7v21.3v21.3
			c0,130.5,26.5,260.1,78.8,385.2c41.5,99.3,99.2,195.8,171.5,287c122.8,154.8,245,240.6,250.1,244.1l17.1,11.9l17.1,11.9l17.1-11.9
			l17.1-11.9c5.1-3.6,127.4-89.4,250.1-244.1c72.3-91.2,130-187.8,171.5-287c52.3-125.1,78.8-254.7,78.8-385.2v-21.3v-21.3
			L-281.7-1429.8z M-291.6-1380.2c0,126.5-25.7,252.2-76.5,373.6c-40.4,96.7-96.7,190.9-167.4,280
			c-120.1,151.4-238.8,234.7-243.8,238.1l-17.1,11.9l-17.1-11.9c-5-3.5-123.7-86.8-243.8-238.1c-70.6-89-126.9-183.2-167.4-280
			c-50.8-121.4-76.5-247.1-76.5-373.6v-21.3l504.7-175.4l504.7,175.4V-1380.2z"/>
		<path display="none" fill="#1AC3ED" d="M-987.8-783.9c-71.3-90.2-153.3-220.7-195.3-381.2h-31c42.5,168.3,127.8,305,202.7,399.8
			c49.5,62.6,99.3,113.4,140,151v-41.3C-906.8-689.8-947.4-732.9-987.8-783.9z"/>
		<path display="none" fill="#1AC3ED" d="M-796.3-1513.4l-444.5,154.5c0.4,14.8,1.1,29.3,2.2,43.8h30.1c-0.6-7.5-1.1-15.1-1.5-22.7
			l413.7-143.8l413.7,143.8c-0.4,7.6-0.9,15.2-1.5,22.7h30.1c1.1-14.4,1.8-29,2.2-43.8L-796.3-1513.4z"/>
		<path display="none" fill="#1AC3ED" d="M-604.8-783.9c-40.4,51.1-81.1,94.2-116.5,128.3v41.3c40.7-37.6,90.5-88.4,140-151
			c75-94.8,160.3-231.5,202.7-399.8h-31C-451.6-1004.6-533.5-874.1-604.8-783.9z"/>
		<path display="none" fill="#1AC3ED" d="M-1267.2-1315.2c4.8,52.2,14.1,102.3,26.7,150h26.4c-12-47.6-20.6-97.6-24.5-150H-1267.2z"
			/>
		<path display="none" fill="#1AC3ED" d="M-871.3-614.3v21.7c45,39.8,75,60.7,75,60.7s30-20.9,75-60.7v-21.7
			c-32.3,29.8-58.8,51.3-75,63.8C-812.5-563-839.1-584.5-871.3-614.3z"/>
		<path display="none" fill="#1AC3ED" d="M-352.2-1165.2c12.6-47.7,21.8-97.8,26.7-150h-28.6c-4,52.4-12.5,102.4-24.5,150H-352.2z"
			/>
		<path fill="#1AC3ED" d="M-871.3-1165.2v509.6c29.8,28.8,55.9,51.2,75,66.8c19.1-15.5,45.2-38,75-66.8v-509.6h311.8
			c12.4-47.5,21.3-97.5,25.4-150h-824.4c4.1,52.5,13,102.5,25.4,150H-871.3z"/>
	</g>
	<path display="inline" fill="#1AC3ED" d="M-796.3-476.5l-17.1-11.9c-5-3.5-123.7-86.8-243.8-238.1c-70.6-89-126.9-183.2-167.4-280
		c-50.8-121.4-76.5-247.1-76.5-373.6v-21.3l504.7-175.4l504.7,175.4v21.3c0,126.5-25.7,252.2-76.5,373.6
		c-40.4,96.7-96.7,190.9-167.4,280c-120.1,151.4-238.8,234.7-243.8,238.1L-796.3-476.5z M-1240.8-1358.9
		c6.4,258.1,127.4,464.6,229.5,593.6c88.7,112.1,178.4,186.5,215,214.8c36.6-28.3,126.4-102.7,215-214.8
		c102-129,223.1-335.4,229.5-593.6l-444.5-154.5L-1240.8-1358.9z"/>
</g>
<g id="Layer_4" display="none">
	<path display="inline" fill="#1AC3ED" d="M-1286.4,644.8h-941.7c4.8,52.2,14.1,102.3,26.7,150h369.2v572.6c45,39.8,75,60.7,75,60.7
		s30-20.9,75-60.7V794.8h369.2C-1300.5,747.1-1291.3,697-1286.4,644.8z"/>
	<path display="inline" fill="none" stroke="#1AC3ED" stroke-width="60" stroke-miterlimit="10" d="M-1757.3,414.8l-474.7,165
		c0,537.1,474.7,867.1,474.7,867.1s474.7-330,474.7-867.1L-1757.3,414.8z"/>
</g>
</svg>
