<?xml version="1.0" standalone="no"?>
<!DOCTYPE svg PUBLIC "-//W3C//DTD SVG 20010904//EN"
 "http://www.w3.org/TR/2001/REC-SVG-20010904/DTD/svg10.dtd">
<svg version="1.0" xmlns="http://www.w3.org/2000/svg"
 width="1820.000000pt" height="2000.000000pt" viewBox="0 0 1820.000000 2000.000000"
 preserveAspectRatio="xMidYMid meet">

<g transform="translate(0.000000,2000.000000) scale(0.100000,-0.100000)"
fill="#000000" stroke="none">
<path d="M10950 16809 c-944 -45 -2036 -473 -3120 -1225 -378 -261 -804 -603
-1160 -929 -52 -48 -108 -93 -125 -100 -16 -7 -730 -256 -1585 -553 -855 -298
-1570 -546 -1587 -552 l-33 -12 0 -306 c0 -806 98 -1646 284 -2438 l34 -142
-83 -199 c-407 -980 -600 -1946 -545 -2728 37 -522 144 -927 351 -1335 444
-874 1291 -1475 2520 -1790 273 -70 873 -180 911 -168 6 2 -27 10 -73 17 -46
7 -154 26 -239 42 -1679 327 -2739 1085 -3145 2250 -317 911 -218 2058 285
3314 94 236 100 249 109 239 4 -5 27 -76 51 -159 23 -82 74 -244 112 -360 528
-1591 1432 -3153 2644 -4567 520 -606 1145 -1235 1724 -1733 391 -336 918
-735 954 -722 18 7 240 164 361 256 663 500 1451 1239 2110 1981 679 763 1308
1634 1797 2485 871 1518 1398 3116 1557 4725 37 371 42 470 48 906 5 415 5
431 -13 438 -11 4 -135 48 -277 97 -142 49 -267 93 -276 99 -11 5 -25 35 -35
72 -29 104 -136 425 -186 558 -351 927 -858 1626 -1485 2044 -545 365 -1173
529 -1885 495z m270 -469 c483 -29 897 -163 1265 -408 454 -302 845 -796 1121
-1414 97 -219 238 -597 232 -624 -2 -8 -790 262 -2273 777 -1248 435 -2288
795 -2310 800 -38 10 -77 -2 -875 -280 -459 -160 -839 -291 -845 -291 -12 0
146 116 341 251 563 391 1217 734 1764 927 438 154 834 239 1220 262 187 11
183 11 360 0z m595 -2496 c1419 -493 2584 -901 2589 -905 12 -11 -7 -405 -34
-686 -153 -1629 -694 -3223 -1616 -4763 -740 -1236 -1729 -2418 -2874 -3436
-309 -276 -646 -548 -663 -537 -29 17 -314 249 -478 390 -842 724 -1639 1580
-2301 2473 -772 1042 -1380 2170 -1786 3310 -241 677 -419 1396 -516 2085 -49
352 -85 764 -89 1024 l-2 143 2580 898 c1419 494 2587 899 2595 899 8 1 1176
-402 2595 -895z"/>
<path d="M4420 12396 c0 -56 39 -406 65 -590 48 -328 104 -618 181 -938 l46
-188 1819 0 1819 0 0 -2974 0 -2974 183 -170 c275 -256 673 -602 692 -602 19
0 421 349 688 597 l187 174 0 2975 0 2974 1819 0 1818 0 17 63 c86 327 177
795 226 1167 26 198 50 431 50 481 l0 39 -4805 0 -4805 0 0 -34z"/>
</g>
</svg>
